<?xml version="1.0" standalone="no"?>
<!DOCTYPE svg PUBLIC "-//W3C//DTD SVG 20010904//EN"
 "http://www.w3.org/TR/2001/REC-SVG-20010904/DTD/svg10.dtd">
<svg version="1.0" xmlns="http://www.w3.org/2000/svg"
 width="1024.000000pt" height="1024.000000pt" viewBox="0 0 1024.000000 1024.000000"
 preserveAspectRatio="xMidYMid meet">
<metadata>
Created by potrace 1.11, written by Peter Selinger 2001-2013
</metadata>
<g transform="translate(0.000000,1024.000000) scale(0.100000,-0.100000)"
fill="#000000" stroke="none">
<path d="M0 5120 l0 -5120 5120 0 5120 0 0 5120 0 5120 -5120 0 -5120 0 0
-5120z m4042 2285 c586 -77 1010 -378 1157 -820 40 -122 55 -242 48 -395 -20
-403 -188 -695 -502 -875 l-73 -42 66 -32 c92 -45 244 -148 320 -217 125 -112
256 -307 317 -468 61 -164 86 -310 86 -496 0 -329 -110 -584 -349 -812 -235
-223 -551 -360 -955 -413 -102 -13 -310 -15 -1498 -15 l-1379 0 0 2300 0 2300
1324 0 c1117 0 1343 -2 1438 -15z m4918 -565 l0 -580 -1150 0 -1150 0 0 -255
0 -255 1055 0 1055 0 0 -580 0 -580 -1055 0 -1055 0 0 -305 0 -305 1150 0
1150 0 0 -580 0 -580 -1927 0 -1926 0 81 49 c128 76 210 139 305 230 247 238
370 512 393 876 7 116 -7 311 -31 425 -74 352 -259 624 -564 830 l-64 43 29
20 c16 11 66 57 111 103 69 70 90 100 133 187 146 299 174 776 64 1107 -88
265 -273 495 -538 671 l-90 59 2012 0 2012 0 0 -580z"/>
<path d="M2660 5979 l0 -350 493 4 c411 3 501 6 544 19 220 66 338 232 288
404 -30 102 -83 162 -194 218 -102 52 -145 56 -658 56 l-473 0 0 -351z"/>
<path d="M2660 4281 l0 -371 573 0 c621 0 650 2 764 56 82 39 164 123 192 199
60 159 -17 339 -180 419 -125 60 -111 59 -756 63 l-593 4 0 -370z"/>
</g>
</svg>
